<?xml version="1.0" encoding="iso-8859-1"?>
<!-- Uploaded to: SVG Repo, www.svgrepo.com, Generator: SVG Repo Mixer Tools -->
<svg version="1.1" id="Layer_1" xmlns="http://www.w3.org/2000/svg" xmlns:xlink="http://www.w3.org/1999/xlink" 
	 viewBox="0 0 511.986 511.986" xml:space="preserve">
<polygon style="fill:#9ED36A;" points="127.996,160.003 127.519,365.426 383.738,365.426 384.222,160.003 255.992,32.007 "/>
<g>
	<rect x="223.992" y="203.442" style="fill:#424953;" width="63.998" height="100.61"/>
	<path style="fill:#424953;" d="M90.06,208.595c-2.727,0-5.461-1.031-7.539-3.125c-4.164-4.156-4.164-10.906,0-15.078
		L248.445,24.461c4.164-4.156,10.923-4.156,15.086,0c4.164,4.171,4.164,10.921,0,15.092L97.606,205.47
		C95.521,207.564,92.795,208.595,90.06,208.595z"/>
	<path style="fill:#424953;" d="M421.925,208.595c-2.733,0-5.468-1.031-7.546-3.125L248.445,39.553
		c-4.164-4.171-4.164-10.921,0-15.092c4.164-4.156,10.923-4.156,15.086,0l165.925,165.931c4.172,4.172,4.172,10.921,0,15.078
		C427.378,207.564,424.643,208.595,421.925,208.595z"/>
</g>
<path style="fill:#4A89DC;" d="M463.579,312.178l-30.67-3.125l-52.671-23.999l-35.327,27.124l-28.67,6.188l-48.655-24.655l-18-4
	l-32.67,17.999l-22.664,4.469l-43.998-9.812l-26-17.313c0,0-9.851,18-17.593,20c-7.734,1.999-38.405,11.312-38.405,11.312
	l-21.999-4.188L0,289.054v172.837v28.75h511.984V289.054L463.579,312.178z"/>
<g>
	<path style="fill:#5D9CEC;" d="M0,380.269c0.031,0,0.055,0,0.086,0c3.141,0,5.242,0.844,5.914,1.313l28.499,18.999
		c8.188,5.469,18.695,8.469,29.585,8.469c10.891,0,21.391-3,29.586-8.469l28.49-18.999c0.68-0.469,2.781-1.313,5.922-1.313
		c3.141,0,5.242,0.844,5.914,1.313l28.499,18.999c8.188,5.469,18.694,8.469,29.585,8.469s21.391-3,29.577-8.469l28.499-18.999
		c0.68-0.469,2.781-1.313,5.922-1.313c3.142,0,5.242,0.844,5.914,1.313l28.499,18.999c8.188,5.469,18.688,8.469,29.594,8.469
		c10.874,0,21.373-3,29.561-8.469l28.499-18.999c0.688-0.469,2.781-1.313,5.938-1.313c3.125,0,5.234,0.844,5.906,1.313l28.5,18.999
		c8.187,5.469,18.687,8.469,29.591,8.469c10.875,0,21.375-3,29.578-8.469l28.483-18.999c0.688-0.438,2.75-1.281,5.844-1.313v-21.312
		c-6.406,0-12.812,1.625-17.655,4.874l-28.5,18.999c-4.891,3.25-11.328,4.875-17.75,4.875c-6.437,0-12.873-1.625-17.748-4.875
		l-28.5-18.998c-4.891-3.249-11.328-4.874-17.75-4.874c-6.438,0-12.875,1.625-17.75,4.874l-28.498,18.999
		c-4.891,3.25-11.328,4.875-17.749,4.875c-6.438,0-12.875-1.625-17.75-4.875l-28.499-18.999c-4.891-3.249-11.328-4.874-17.758-4.874
		c-6.438,0-12.867,1.625-17.749,4.874l-28.499,18.999c-4.883,3.25-11.32,4.875-17.75,4.875c-6.438,0-12.866-1.625-17.749-4.875
		l-28.499-18.999c-4.883-3.249-11.32-4.874-17.75-4.874c-6.438,0-12.866,1.625-17.749,4.874l-28.499,18.999
		c-4.883,3.25-11.313,4.875-17.75,4.875s-12.866-1.625-17.749-4.875l-28.499-18.999c-4.883-3.249-11.313-4.874-17.75-4.874
		c-0.031,0-0.055,0-0.086,0C0,358.958,0,380.269,0,380.269z"/>
	<path style="fill:#5D9CEC;" d="M0,298.679c0.031,0,0.055,0,0.086,0c3.141,0,5.242,0.844,5.914,1.281l28.499,18.999
		c8.188,5.468,18.695,8.468,29.585,8.468c10.891,0,21.391-3,29.586-8.468l28.49-18.999c0.68-0.438,2.781-1.281,5.922-1.281
		c3.141,0,5.242,0.844,5.914,1.281l28.499,18.999c8.188,5.468,18.694,8.468,29.585,8.468s21.391-3,29.577-8.468l28.499-18.999
		c0.68-0.438,2.781-1.281,5.922-1.281c3.142,0,5.242,0.844,5.914,1.281l28.499,18.999c8.188,5.468,18.688,8.468,29.594,8.468
		c10.874,0,21.373-3,29.561-8.468l28.499-18.999c0.688-0.438,2.781-1.281,5.938-1.281c3.125,0,5.234,0.844,5.906,1.281l28.5,18.999
		c8.187,5.468,18.687,8.468,29.591,8.468c10.875,0,21.375-3,29.578-8.468l28.483-18.999c0.688-0.438,2.75-1.281,5.844-1.281v-21.344
		c-6.406,0-12.812,1.625-17.655,4.875l-28.5,19c-4.891,3.25-11.328,4.875-17.75,4.875c-6.437,0-12.873-1.625-17.748-4.875
		l-28.499-19c-4.891-3.25-11.328-4.875-17.75-4.875c-6.438,0-12.875,1.625-17.75,4.875l-28.498,19
		c-4.891,3.25-11.328,4.875-17.749,4.875c-6.438,0-12.875-1.625-17.75-4.875l-28.499-19c-4.891-3.25-11.328-4.875-17.758-4.875
		c-6.438,0-12.867,1.625-17.749,4.875l-28.499,19c-4.883,3.25-11.32,4.875-17.75,4.875c-6.438,0-12.866-1.625-17.749-4.875
		l-28.499-19c-4.883-3.25-11.32-4.875-17.75-4.875c-6.438,0-12.866,1.625-17.749,4.875l-28.499,19
		c-4.883,3.25-11.313,4.875-17.75,4.875s-12.866-1.625-17.749-4.875l-28.499-19c-4.883-3.25-11.313-4.875-17.75-4.875
		c-0.031,0-0.055,0-0.086,0v21.344H0z"/>
	<path style="fill:#5D9CEC;" d="M0,461.89c0.031,0,0.055,0,0.086,0c3.141,0,5.242,0.844,5.914,1.313l28.499,19
		c8.188,5.438,18.695,8.438,29.585,8.438c10.891,0,21.391-3,29.578-8.438l28.498-19c0.68-0.469,2.781-1.313,5.922-1.313
		c3.133,0,5.242,0.844,5.914,1.313l28.499,19c8.188,5.438,18.694,8.438,29.585,8.438s21.391-3,29.577-8.438l28.499-19
		c0.672-0.469,2.781-1.313,5.922-1.313c3.134,0,5.242,0.844,5.914,1.313l28.499,19c8.188,5.438,18.688,8.438,29.594,8.438
		c10.874,0,21.373-3,29.561-8.438l28.499-19c0.688-0.469,2.781-1.313,5.938-1.313c3.125,0,5.234,0.844,5.906,1.313l28.5,19
		c8.187,5.438,18.687,8.438,29.591,8.438c10.875,0,21.375-3,29.563-8.438l28.499-19c0.688-0.469,2.75-1.281,5.844-1.313v-21.341
		c-6.406,0.031-12.812,1.655-17.671,4.905l-28.484,18.998c-4.891,3.25-11.328,4.875-17.75,4.875c-6.437,0-12.873-1.625-17.764-4.875
		l-28.483-18.998c-4.891-3.281-11.328-4.905-17.75-4.905c-6.438,0-12.875,1.624-17.766,4.905l-28.482,18.998
		c-4.891,3.25-11.328,4.875-17.749,4.875c-6.438,0-12.875-1.625-17.75-4.875l-28.499-18.998c-4.891-3.281-11.328-4.905-17.758-4.905
		c-6.438,0-12.875,1.624-17.749,4.905l-28.499,18.998c-4.883,3.25-11.32,4.875-17.75,4.875c-6.438,0-12.874-1.625-17.749-4.875
		l-28.499-18.998c-4.883-3.281-11.32-4.905-17.75-4.905c-6.438,0-12.874,1.624-17.749,4.905l-28.499,18.998
		c-4.883,3.25-11.32,4.875-17.75,4.875c-6.437,0-12.874-1.625-17.749-4.875l-28.499-18.998c-4.883-3.281-11.32-4.905-17.75-4.905
		c-0.031,0-0.055,0-0.086,0v21.341H0z"/>
</g>
</svg>