<?xml version="1.0" encoding="UTF-8" standalone="no"?>
<!-- Created with Inkscape (http://www.inkscape.org/) -->

<svg
   height="80mm"
   width="297mm"
   viewBox="0 0 1052.3622 283.46456"
   id="svg6274"
   version="1.1"
   inkscape:version="1.3.2 (091e20e, 2023-11-25, custom)"
   sodipodi:docname="logo_gauss.svg"
   xmlns:inkscape="http://www.inkscape.org/namespaces/inkscape"
   xmlns:sodipodi="http://sodipodi.sourceforge.net/DTD/sodipodi-0.dtd"
   xmlns="http://www.w3.org/2000/svg"
   xmlns:svg="http://www.w3.org/2000/svg"
   xmlns:rdf="http://www.w3.org/1999/02/22-rdf-syntax-ns#"
   xmlns:cc="http://creativecommons.org/ns#"
   xmlns:dc="http://purl.org/dc/elements/1.1/">
  <defs
     id="defs6280" />
  <sodipodi:namedview
     pagecolor="#ffffff"
     bordercolor="#666666"
     borderopacity="1"
     objecttolerance="10"
     gridtolerance="10"
     guidetolerance="10"
     inkscape:pageopacity="0"
     inkscape:pageshadow="2"
     inkscape:window-width="1366"
     inkscape:window-height="705"
     id="namedview6278"
     showgrid="false"
     inkscape:zoom="1.1843989"
     inkscape:cx="290.44269"
     inkscape:cy="127.06868"
     inkscape:window-x="-8"
     inkscape:window-y="-8"
     inkscape:window-maximized="1"
     inkscape:current-layer="g10832"
     inkscape:showpageshadow="2"
     inkscape:pagecheckerboard="0"
     inkscape:deskcolor="#d1d1d1"
     inkscape:document-units="mm" />
  <metadata
     id="metadata6276">
    <rdf:RDF>
      <cc:Work
         rdf:about="">
        <dc:format>image/svg+xml</dc:format>
        <dc:type
           rdf:resource="http://purl.org/dc/dcmitype/StillImage" />
      </cc:Work>
    </rdf:RDF>
  </metadata>
  <g
     id="g3301"
     inkscape:export-filename="/home/carlos/Dropbox/documentos/gauss/logo_gauss_simples_Full.png"
     inkscape:export-xdpi="299.97244"
     inkscape:export-ydpi="299.97244"
     transform="matrix(6.5170478,0,0,6.5170478,-6572.1926,4517.5093)"
     inkscape:label="g3301">
    <g
       id="g10832"
       transform="matrix(1.2492569,0,0,1.2492569,-301.83003,134.39628)"
       inkscape:label="g10832">
      <path
         inkscape:connector-curvature="0"
         id="path3093-4-4-9"
         d="m 1077.3153,-645.18401 c 0,7.3224 -5.936,13.25839 -13.2584,13.25839 -7.3224,0 -13.2585,-5.93599 -13.2585,-13.25839 0,-7.3224 5.9361,-13.25841 13.2585,-13.25841 7.3224,0 13.2584,5.93601 13.2584,13.25841 z"
         style="fill:none;stroke:#000000;stroke-width:0.589359;stroke-miterlimit:4;stroke-opacity:1" />
      <path
         inkscape:connector-curvature="0"
         id="path4969-5-0-0"
         d="m 1076.1449,-645.18439 c 0,6.67581 -5.4119,12.0877 -12.0878,12.0877 -6.6759,0 -12.0878,-5.41189 -12.0878,-12.0877 0,-6.67596 5.4119,-12.08785 12.0878,-12.08785 6.6759,0 12.0878,5.41189 12.0878,12.08785 z"
         style="fill:none;stroke:#000000;stroke-width:0.503017;stroke-miterlimit:4;stroke-opacity:1" />
      <g
         id="g3077-2-7-8"
         transform="matrix(0.68306088,0,0,0.68306088,-2602.5418,-3281.454)"
         style="fill:#444444;fill-opacity:1;stroke:none">
        <path
           id="path1295-5-0-6"
           d="m 5470.7234,4350.6131 c -0.1463,-0.6399 1.755,-0.2285 1.56,-1.0055 -0.39,-1.691 -0.7313,-1.7824 -1.4138,-3.4278 -0.097,-0.457 -4.2412,0.5942 -5.4599,1.0055 -2.2425,0.7313 -5.655,1.3711 -6.6788,3.6106 -0.3412,0.8227 -2.4375,1.0055 -3.3637,1.3711 -0.2438,0.1371 1.4137,0.2285 0.4387,1.6453 -0.1462,0.2285 -6.9225,2.5137 -7.6537,2.6965 -1.8525,0.4113 -6.435,0.5028 -8.0437,-0.4113 -2.2913,-1.3711 6.63,-0.1828 3.315,-3.9305 -0.6825,-0.7313 -3.9,-0.9141 -1.9988,-2.3766 1.56,-1.234 0.6338,-2.2395 -0.585,-1.0055 -3.3637,3.2907 -0.4875,2.011 0.2925,3.4278 0.8775,1.7367 -4.2412,2.3309 -5.265,2.5594 -1.6087,0.3656 -3.0712,0.4113 -4.68,0.7769 -0.8287,0.1829 -3.2662,2.0567 -3.6562,0.5028 -0.195,-0.777 -2.0962,0.7312 -2.0962,0.7312 -3.5588,0.777 -7.1175,2.6508 -10.6763,3.4278 -0.585,0.1371 -4.1437,0.9141 -4.0462,1.1426 0.097,0.5484 0.2437,1.0512 0.78,0.914 0.5362,-0.091 1.4625,-0.046 1.9987,-0.1371 1.365,-0.3199 2.73,-0.5941 4.095,-0.914 0.5363,-0.1371 3.6563,1.9195 2.2913,2.1937 -1.95,0.4114 -3.12,-0.8226 -4.5825,0.2743 l 1.9987,0.457 c -0.7312,0.9141 12.4312,0.6398 13.7475,0.457 l 11.6025,-1.691 c 3.2662,-0.4113 23.4487,-6.4899 25.7399,-8.7751 l 1.8525,-1.8738 c 0.1462,-0.1371 0.6825,-1.5539 0.4875,-1.6453 z"
           class="fil2 str1"
           style="fill:#444444;fill-opacity:1;fill-rule:evenodd;stroke:none"
           transform="matrix(0.238129,0,0,0.238129,4075.19,2837.82)"
           inkscape:connector-curvature="0" />
        <path
           id="path1296-4-6-4"
           d="m 5463.9959,4242.2046 c -0.195,0.4113 -0.195,-0.3656 -0.39,0.091 -0.39,0.8684 -1.6087,-0.5941 -1.7062,0.6398 -0.097,0.9598 -0.5363,-0.1371 -0.975,0.32 -0.2925,0.3199 0.049,-0.4571 -0.4875,-0.4571 -0.78,0 -1.0725,-0.2285 -1.95,-0.457 -0.5363,-0.1828 -0.5363,-0.7313 -0.9263,-0.5941 -0.5362,0.1828 -0.195,-0.1829 -0.585,-0.4114 -0.4387,-0.046 -0.975,-0.5484 -1.4137,-0.6398 -0.4875,-0.1371 -0.6338,-0.3657 -0.7313,-0.777 -0.049,-0.3656 -0.585,-0.2285 -0.78,-0.5027 -0.2437,-0.3656 0.097,-0.3656 -0.39,-0.6856 -0.7312,-0.457 0.6825,-0.8683 -0.2437,-1.4625 -0.2438,-0.1828 -0.2925,-0.2742 -0.2925,-0.5484 0,-0.2742 -0.2438,0.2285 -0.4875,-0.1371 -0.1463,-0.2743 -0.4388,-0.091 -0.6338,0 -0.3412,0.1828 0.3413,0.091 0.39,0.1371 1.0238,0.6855 0,1.234 0.049,0.7769 0,-0.1371 -0.39,0.1829 -0.4875,0.1371 -0.4388,-0.2742 0,-0.6398 -0.2925,-0.8226 l -0.049,-0.046 c -0.3412,-0.2285 -0.3412,-0.2742 -0.049,-0.4571 0.1462,-0.1371 0.78,-0.1828 0.39,-0.4113 -0.2925,-0.1828 -0.585,-0.1371 -0.78,-0.2742 -0.39,-0.2285 -0.4875,-0.457 -0.6338,0 -0.097,0.2742 0.2438,0.1828 0.097,0.5484 -0.049,0.1371 -0.6825,-0.3656 -0.8775,-0.457 -0.2437,-0.1828 0.097,-0.5484 -0.1462,-0.777 -0.2438,-0.2742 -0.195,0.046 -0.39,-0.046 -0.049,0 -0.5363,-0.6398 -0.6338,-0.4113 -0.1462,0.2285 -0.39,-0.046 -0.2925,-0.2285 -0.097,-0.5027 -0.1462,-0.3199 -0.2437,-0.046 -0.1462,0.4113 0.049,-0.6399 -0.4875,-0.5027 -0.6337,0.1371 -1.755,-1.234 -2.1937,-0.2286 -0.1463,0.32 -0.39,0.4571 -0.6825,0.3657 -0.1463,-0.091 -0.195,0.2285 0.049,0.3199 0.2925,0.091 -0.6337,0.1371 -0.7312,0.046 -0.1463,-0.091 -0.1463,-0.1371 -0.195,-0.2742 0,0 -0.3413,0.1371 -0.5363,0 -0.195,-0.1371 0.4388,-0.777 0.3413,-1.0055 -0.097,-0.1828 -0.8775,-0.046 -1.0725,-0.1828 -1.0238,-0.5485 0.5362,-1.5539 0.3412,-1.9653 -0.4875,-1.0968 -0.049,-0.6855 -0.9262,-0.8226 -0.3413,-0.046 0.2437,-1.5996 0.097,-1.7825 -0.4388,-0.5941 -0.097,-1.1882 0.1462,-1.7367 0.2438,-0.6398 0.585,-0.046 1.0725,-0.1828 0.39,-0.091 -0.6337,-0.4113 -0.7312,-0.457 0,0 -0.097,-0.6399 -0.2438,-0.2743 -0.097,0.2743 -0.2437,-0.3199 -0.195,-0.457 0,-0.3199 0.195,0 0.2438,-0.1371 0.195,-0.457 -0.4875,-0.7313 -0.097,-1.6453 0.2925,-0.6856 1.0725,-1.0969 1.8037,-0.6399 1.0725,0.6856 0.975,0.7313 0.2925,-0.5484 -0.2437,-0.3656 -0.2437,-0.091 -0.049,-0.7313 0.097,-0.4113 1.0725,0.1828 1.3162,0.4571 0.39,0.457 2.0963,1.1883 2.535,1.0968 0.2437,-0.091 0.3412,0.2743 0.39,0.3657 0.1462,0.2285 0.3412,-0.8684 0.8287,-0.2742 0,0 0.1463,0.7312 0.195,0.5941 0.4388,0.6856 0.2438,-0.3199 0.7313,-0.091 0.195,0.1371 0.6825,-0.1371 0.78,-0.046 0.3412,0.1828 0.6337,0.1371 0.9262,0.2742 0.4875,0.2742 0.8775,0.3199 0.975,0.9141 0.049,0.1371 0.39,0.5484 0.049,0.5484 -0.7313,0.046 -0.2925,0.8684 -0.098,0.5485 0.3412,-0.4571 0.585,-0.777 1.17,-0.3657 0,0 -0.049,0.1371 -0.049,0.1371 -0.049,0.046 -0.78,0.2743 -0.585,0.4114 0.6338,0.5484 1.4625,-1.1426 2.2425,-0.6399 0.39,0.2742 0.7313,0.1371 0.4388,0.8227 -0.1463,0.4113 -0.7313,0.046 -0.9263,0.457 -0.2437,0.5485 0.2925,-0.046 0.585,0.2742 0.1463,0.1829 -0.1462,0.6399 0.39,0.6399 0.2438,0 0.049,-0.5485 0.049,-0.6399 0.3412,-2.1023 1.0237,0.5942 1.7062,1.0512 0.1463,0.091 0.2925,1.691 0.2438,1.9196 0,0.2285 -0.195,0.5027 -0.2925,0.7312 -0.1463,0.3656 0.097,0.1371 0.195,0.4571 0.2925,0.2285 0.4387,0.6398 0.6337,0.9597 0.098,0.091 0.2438,0.1371 0.2925,0.1828 0.2438,0.32 0.5363,1.1426 0.6338,1.5083 0.049,0.3199 -0.2925,1.2339 -0.195,1.3711 0.049,0.2285 0.195,1.5082 0.2925,1.5539 0.049,0.046 0.1462,-0.046 0.2925,0.046 0.3412,0.2285 0.39,0.5484 0.6825,0.7312 0.4875,0.32 0.6337,0.5942 0.78,1.0512 0.049,0.1828 0.4387,0.9598 0.6337,1.0969 0.195,0.1828 0.5363,0.3199 0.6825,0.6398 0.2438,0.4571 0.5363,0.9141 0.9263,1.2797 0.2437,0.1828 0.39,0.5028 0.2437,0.777 z"
           class="fil3 str2"
           style="fill:#444444;fill-opacity:1;fill-rule:evenodd;stroke:none"
           transform="matrix(0.238129,0,0,0.238129,4075.19,2837.82)"
           inkscape:connector-curvature="0" />
        <path
           id="path1300-7-2-7"
           d="m 5437.281,4346.8654 c -1.8038,-0.5027 -7.3613,-2.1481 -7.7513,-4.159 -0.2925,-1.4168 -0.8775,-2.1024 -0.8775,-3.6563 0,-0.9141 0,-2.6965 -0.585,-3.382 -0.5849,-0.777 -0.4874,-0.7313 -0.4874,0.091 0,0.5027 -0.2438,0.7312 -0.6338,0.046 -0.39,-0.777 -0.1462,-2.0567 -0.2437,-2.925 -0.097,-0.5028 -0.4875,-0.8227 -0.6338,-1.234 -0.098,-0.3657 -0.098,-0.8684 -0.098,-1.234 0,-1.0512 0.3413,-2.1481 0.195,-3.1993 -0.2925,-1.7824 -0.7312,-3.0164 -0.7312,-4.8902 0,-1.6454 0.1462,-3.3364 0.1462,-4.9817 -0.4387,-0.7313 -0.6825,-1.4625 -0.6825,-2.2852 0,-1.0055 -2.3887,-2.6051 -3.2175,-2.9707 -0.6337,-0.2285 -2.34,-0.9598 -2.34,-1.8738 -0.098,-1.0055 -0.6337,-1.7825 -0.975,-2.6965 -0.1462,-0.2743 -0.78,-0.6399 -0.78,-1.0055 0,-1.3254 -1.8037,-2.0567 -2.2912,-2.925 -0.049,-0.1828 -0.975,-2.2395 -0.2438,-2.2395 0.1463,-0.1371 0.2438,-0.3199 0.2925,-0.3656 0.3413,-0.1371 0.7313,-0.1371 0.4388,-0.6856 0,-0.091 -0.39,0 -0.4388,-0.091 -0.4875,-0.9141 -0.049,-2.9707 1.1213,-3.382 0.4387,-0.1371 0.4387,-0.9598 0.975,-1.0969 0.4875,-0.1371 0.6825,-0.9141 0.6825,-1.4168 -0.3413,-1.1883 0.39,-1.9196 -0.39,-3.0164 -0.3413,-0.5028 -0.39,-1.234 -1.3163,-0.9598 -0.6337,0.1828 -0.195,1.4625 -1.1212,1.1883 -0.39,-0.091 -0.4875,-0.6856 -1.0238,-0.6856 -0.2437,0 -0.975,-0.091 -0.975,-0.3656 -0.39,-0.457 -0.975,-1.0055 -1.56,-1.0055 -0.975,0 -0.39,-1.0969 -0.4875,-1.6453 -0.1462,-0.7313 -1.3162,-1.3254 -1.95,-1.5082 -0.6337,-0.2285 -1.365,-0.4114 -1.8037,-0.5028 -0.049,0 -0.6825,-0.4113 -0.8775,-0.4113 -0.4875,-0.2742 -0.8287,-0.5027 -1.0725,-1.0055 0,-0.1371 0,-0.4113 0,-0.457 -0.1462,-0.1828 -1.17,-0.1828 -1.56,-0.1828 -0.097,0 -0.585,0.2742 -0.585,0.2742 -0.049,0.091 -0.78,0.046 -0.9262,0.046 -1.365,-0.046 -2.145,-1.1883 -3.51,-1.6453 -0.4875,-0.1371 -2.0963,-1.2797 -2.2425,-1.5996 -0.195,-0.32 -0.4388,-0.777 -0.2438,-1.234 0.049,-0.2285 0.4875,-1.2797 0.1463,-1.4625 -0.39,-0.7313 -1.1213,-1.2797 -1.5113,-1.9653 -0.2437,-0.457 -0.2437,-0.5941 -0.78,-0.8683 -0.3412,-0.1829 -0.049,-0.4114 0.049,-0.5028 0.3412,-0.3199 -0.4875,-0.6398 -0.4875,-1.0969 0,-0.1371 -0.3413,-0.3656 -0.3413,-0.4113 0.1463,-0.2742 -0.097,-0.3656 -0.3412,-0.457 -0.2438,-0.4114 -0.78,-3.6106 -1.755,-2.6965 -0.8775,0.8683 0.8775,3.5648 1.17,4.6617 0.097,0.4571 1.56,4.6161 0,2.3766 -0.5363,-0.7313 -0.585,-2.9707 -1.755,-2.9707 -0.5363,0 -0.9263,-1.0055 -0.5363,-1.0055 0.8775,0 1.1213,-0.4113 0.39,-1.0969 -0.975,-0.914 0.195,-3.9305 -1.755,-4.159 -1.4625,-0.1828 -1.1212,-2.8793 -1.1212,-4.0676 -0.2438,-0.5484 0.049,-1.8281 0.3412,-2.2395 0.6825,-0.6855 1.8525,-2.148 2.2913,-2.9707 0.3412,-0.6855 1.95,-2.1023 1.95,-2.8793 -0.195,-0.4113 0,-1.4625 -0.6825,-1.4625 -0.39,0 -0.975,-0.9141 -0.2438,-0.9141 0.195,0 0.8288,0.2285 0.9263,0.1371 0.1462,-0.1371 -0.5363,-1.9652 -0.2438,-2.5137 1.17,-2.1937 -1.56,0.046 -0.9262,-2.605 0.2437,-1.1426 -0.195,-2.6965 -1.6088,-2.6965 -0.8287,0.046 -1.4625,-0.3657 -2.2425,-0.1372 -0.7312,0.2286 -1.7549,0.1829 -2.5349,0.3657 -0.5363,0.1371 -1.17,0.1828 -1.6575,0.2285 -0.585,0.091 -0.098,-0.2285 -0.4875,-0.2742 -1.6088,-0.4114 -1.365,1.1883 -2.2913,1.1883 -1.1212,0.4113 -2.34,0.5484 -3.51,0.8683 -1.17,0.2742 -2.1937,1.0969 -3.4612,1.0969 -0.39,0 2.0962,-1.0512 2.34,-1.0969 0.049,-0.046 1.2675,-0.6398 1.2187,-0.6398 0,0.1828 0.6338,-0.2285 0.6338,-0.2285 0.4387,-0.4114 -1.2675,-0.32 -1.56,-0.32 -1.3163,0 -0.1463,-0.7312 -0.1463,-1.0969 0,-0.2285 -0.6825,-0.5484 -0.3412,-1.1425 0.4875,-0.8227 1.4137,-0.4571 2.2425,-0.5485 0.3412,-0.046 4.0462,-1.7367 4.0462,-1.7367 0.3413,-0.777 -1.56,-0.1371 -1.8525,-0.1371 -0.1462,0 -0.975,-1.0512 0.049,-1.1426 1.0725,-0.091 2.2912,-0.046 3.315,-0.046 0.8775,0 -0.1463,-1.5082 -0.049,-1.691 0.195,-0.2286 2.535,-0.7313 2.925,-0.8227 0.975,-0.1371 2.2912,-0.6398 3.12,-0.9141 2.8275,-0.8683 4.7775,0.3657 7.1662,0.3657 2.0475,0 3.8025,0.457 5.6063,0.8683 0.78,0.1828 6.6787,-1.5082 6.9224,-0.7312 0,0.1371 5.1675,0.914 5.3625,0.914 0.7313,0.1372 3.0713,1.4626 3.4613,0.6399 0.39,-0.7313 3.5587,-0.9141 4.29,-0.5942 1.2187,0.5485 4.7287,0.777 4.7287,-1.1425 0,-0.4571 4.7775,-2.8794 5.7037,-2.8794 1.5113,0 -2.8275,1.4169 -2.8275,2.1938 0,0.7313 1.1213,2.4223 1.755,2.4223 1.7063,-0.777 1.5113,-0.5942 1.17,-1.7824 -0.975,-3.2907 7.2638,-2.5594 8.6288,-1.6911 0.8775,0.5028 2.1937,2.2852 2.6325,3.1536 1.365,2.5594 -2.6813,5.7586 -5.265,4.2047 -0.6338,-0.3656 -1.2675,-0.8227 -2.0963,-0.9598 -5.655,-0.8684 5.6063,-1.0969 2.145,-4.0676 -3.12,-2.6508 -3.8025,1.5539 -5.46,2.2395 -0.4875,0.2285 -1.4137,0.091 -1.95,0.091 -0.8775,0 0.3413,0.9598 0.39,1.0055 1.6088,1.5082 -1.3162,1.1425 -2.2425,1.1425 -0.4387,0 -0.2437,-0.8683 -0.049,-1.0054 1.7062,-1.234 -1.365,0.3199 -2.0962,0.5941 -1.9988,0.6856 -5.1188,1.9196 -6.4838,3.4278 -0.1462,0.1828 -0.3412,0.4113 -0.4387,0.5941 -0.195,0.3199 0.4387,0.4113 0.4387,0.8684 0,0.7312 -0.1462,0.8683 0.78,0.8683 0.4388,0 0.9263,0.5028 1.4138,0.5485 0.975,0.091 1.1212,0.1828 1.7062,0.7769 0.097,0.046 1.2188,0.32 1.3163,0.32 0.39,0.3199 0.097,0.7312 0.097,1.0968 0,0.32 -1.0725,0.6399 -0.7313,1.0055 0.2438,0.2285 0.4875,1.0055 0.8288,1.0055 0.2925,0 0.6337,-0.457 1.1212,-0.457 0.585,0 0.4875,-1.9196 0.7312,-2.2395 0.585,-0.6856 2.3888,-0.6399 2.9738,-1.3711 0.6337,-1.1883 0.049,-1.3254 0.049,-2.1481 0,-0.6398 1.365,-0.914 1.56,-1.7824 0.2438,-0.9141 0.195,-1.0969 1.4138,-1.0969 2.2912,0 3.315,-0.091 3.315,2.1938 0,2.0109 1.8037,0.7312 2.34,0.2285 0.6825,-0.6399 1.5112,-1.1883 1.5112,0.091 0,1.0969 0.7313,3.0164 1.56,3.6106 0.195,0.1371 0.7313,0.8226 0.8775,0.8683 0.195,0.046 0.8775,0.9141 0.585,0.9141 -1.3162,0.2285 -1.0725,1.0969 -1.4625,2.1024 -0.1462,0.457 0.4875,0.5941 0.8775,0.5484 0.7313,-0.091 1.4625,3.0164 -0.2925,2.4223 -0.6337,-0.2285 -0.9262,-0.5942 -1.6575,-0.5942 -0.39,0 -2.535,-0.1371 -1.9012,-0.5941 0.6337,-0.457 1.2675,-1.0055 1.755,-1.5082 1.4137,-1.2797 0.4875,-1.3711 -0.975,-0.7313 -0.9263,0.4571 -2.6813,0.4571 -3.705,0.4571 -1.0238,0 -2.925,0.3199 -3.6563,1.0511 -0.2925,0.2743 -0.39,0.5028 -0.78,0.7313 -1.0237,0.5484 1.755,-0.4113 2.0963,-0.4113 0.3412,-0.046 0.8287,-0.1371 1.1212,-0.2286 1.0725,-0.2285 -0.5362,1.3711 -0.5362,1.7825 0,0.5484 1.365,0.8226 1.9012,0.8226 0.4388,0 0.8288,-1.1425 1.2188,-0.9597 0.585,0.2742 0.4387,1.1883 -0.195,1.2797 -1.2188,0.2285 -2.4375,1.0054 -3.4613,1.234 -0.097,0 -1.2675,0.7312 -1.2675,0.3199 0,-0.5942 2.0475,-1.6453 1.2188,-1.6453 -1.4138,0 -2.0475,1.4168 -3.6075,1.4168 -0.5363,0.2285 -1.0725,0.5484 -1.6575,0.8226 -0.2925,0.1371 -0.097,0.6856 -0.2925,0.8227 -0.8775,0.6398 -3.7537,1.3711 -3.7537,2.6051 0,0.6398 -0.9263,1.0055 -1.3163,1.4625 -0.4387,0.5027 -0.195,1.1883 -0.8775,1.7824 -1.1212,0.9141 -4.5825,2.2852 -5.0212,3.5192 -0.4875,1.4168 -0.2438,2.7879 -0.2438,4.159 0,0.046 -0.4387,1.5082 -0.6337,1.5082 -0.585,0 -0.3413,-0.6855 -0.39,-1.0055 -0.097,-0.457 -0.8775,-0.5484 -0.8775,-1.4625 0,-0.5027 0.4875,-1.0055 0.1462,-1.5539 -0.39,-0.5941 -1.56,0.4113 -1.95,-0.3656 -0.39,-0.8227 -1.3162,-0.4113 -1.9987,-0.4113 -0.585,0.1828 -1.0725,0.1371 -1.0725,0.7312 0,0.457 -3.5588,0.046 -4.1437,0.046 -0.975,0 -2.6813,1.7367 -2.6813,2.6508 -0.6337,0.9598 -2.4375,7.0383 -0.097,7.0383 1.6575,0 4.3387,0.4114 4.68,-1.7367 0.1462,-0.8227 1.9987,-1.234 2.7787,-0.777 0.585,0.32 -3.0225,4.8903 -1.3162,5.0274 0.8287,0.046 2.5837,-0.3656 3.2175,0.1828 0.6825,0.6399 -0.097,1.5997 -0.097,2.2852 -0.78,1.5082 0.8287,4.1133 2.7787,3.3821 0.5363,-0.1829 0.6338,-0.5485 1.3163,-0.2743 0.4387,0.2286 0.78,0.4571 1.3162,0.4571 0.39,0 0.975,-1.5082 1.365,-1.8282 0.1463,-0.1828 3.4613,-1.5082 3.4613,-1.0054 0,0.4113 -0.5363,0.7769 0.4875,0.7769 0.195,0 0.8775,-0.2285 1.3162,-0.2285 1.17,0.457 1.9988,0.9598 3.6075,0.9598 0.4875,0 0.8775,-0.32 1.365,-0.32 1.95,0 3.6562,4.8903 5.9962,4.6618 2.0475,-0.1828 4.0463,1.4625 4.0463,3.3363 0.2925,1.554 2.0962,2.011 3.4125,2.5137 0.7312,0.2743 1.9987,1.3254 2.1937,1.1426 0.1463,-0.1828 1.8038,0.457 2.2912,0.457 1.4138,0 1.95,1.2797 2.8275,1.7368 0.6825,0.3199 2.0963,-0.091 2.0963,0.8683 0,1.554 0.4875,2.8337 -0.975,3.8848 -0.2438,0.1371 -0.4388,0.5942 -0.5363,0.8227 -0.097,0.2742 -0.6337,0.046 -0.6337,0.6855 0,0.2286 -0.2438,0.4571 -0.2438,0.6856 -0.39,0 -0.8287,0.4113 -0.8287,0.7313 0,0.5941 0.049,1.1882 0.049,1.7824 0,0.5484 0.39,1.5996 0.049,1.9652 -0.195,0.1371 -0.1463,1.0055 -0.1463,1.234 -0.585,0.3657 -0.975,1.7825 -0.975,2.5137 0,0.6856 -2.8274,0.7313 -3.3637,1.234 -0.4387,0.4113 -1.4137,0.5027 -1.9012,1.0055 -0.4388,0.3656 -0.7313,1.8281 -0.4388,2.3766 -0.195,0.1828 0.049,1.0054 -0.097,1.3254 -0.2437,0.457 -0.6825,0.7312 -0.8287,1.2797 -0.049,0.2285 -0.3413,1.2339 -0.585,1.2339 -0.3413,0 0.2925,-0.9597 0.2925,-0.9597 0,-0.3657 -0.049,-0.3657 -0.2438,-0.1828 -0.195,0.1828 -0.049,0.5027 -0.2437,0.6398 -0.049,0 -0.4875,0.5484 -0.4875,0.6856 0,0.4113 -0.2438,0.914 -0.2438,1.1425 -0.4387,0.6399 -0.6825,1.6454 -1.755,1.4168 -0.3412,-0.046 -0.6825,-0.2742 -1.0237,-0.2742 -0.2925,-0.046 -0.78,-0.5027 -1.2188,-0.5027 -0.2437,0 -0.2925,0.2742 -0.2437,0.5027 0.195,0.3657 1.1212,0.9141 1.4137,1.1883 0.2438,0.1828 0.4875,0.5028 0.4875,0.8684 -1.0237,1.9652 -1.1212,1.7824 -3.7537,1.7824 -0.3413,0 0.39,0.8227 0.39,0.8684 0.2437,0.5484 0.195,1.0512 -0.4875,1.0512 -0.4875,0 -2.34,-0.2743 -0.975,0.9597 0.097,0.1371 0.975,-0.046 1.0237,0.046 0.2438,0.2285 -0.8775,1.0512 -0.7312,1.6911 0.1462,0.5941 -2.145,2.5136 0.2437,2.5136 1.2188,0 0.5363,1.0055 0.2438,1.5997 -0.585,1.1425 -0.78,2.0566 0.4875,3.2906 0.39,0.3656 4.9237,2.4223 2.2425,2.5137 z"
           class="fil2 str1"
           style="fill:#444444;fill-opacity:1;fill-rule:evenodd;stroke:none"
           transform="matrix(0.238129,0,0,0.238129,4075.19,2837.82)"
           inkscape:connector-curvature="0" />
      </g>
      <g
         id="text1761-4-6-0"
         style="font-style:normal;font-variant:normal;font-weight:bold;font-stretch:normal;font-size:23.3298px;line-height:100%;font-family:'Bitstream Vera Sans';writing-mode:lr-tb;text-anchor:start;fill:#000000;fill-opacity:1;stroke:none"
         transform="matrix(1.1022143,0,0,1.0007314,618.38905,-1667.1157)">
        <path
           inkscape:connector-curvature="0"
           id="path9399-3-6"
           d="m 436.67502,1026.1756 c -1.0936,0.5316 -2.22895,0.9303 -3.40606,1.1961 -1.17714,0.2658 -2.39223,0.3987 -3.64529,0.3987 -2.83269,0 -5.07682,-0.7898 -6.73238,-2.3694 -1.65557,-1.5872 -2.48335,-3.7364 -2.48335,-6.4476 0,-2.7416 0.84297,-4.8984 2.52891,-6.4704 1.68594,-1.572 3.99462,-2.358 6.92604,-2.358 1.13155,0 2.21374,0.1063 3.24659,0.3189 1.04041,0.2127 2.02008,0.5278 2.93901,0.9455 v 3.52 c -0.94931,-0.5392 -1.89481,-0.9417 -2.83649,-1.2075 -0.93412,-0.2658 -1.87202,-0.3987 -2.8137,-0.3987 -1.74671,0 -3.09471,0.4898 -4.04399,1.4695 -0.94171,0.9721 -1.41256,2.3656 -1.41255,4.1807 -10e-6,1.7999 0.45565,3.1896 1.36698,4.1693 0.91132,0.9797 2.20615,1.4695 3.88451,1.4695 0.45565,0 0.87713,-0.027 1.26446,-0.08 0.39489,-0.061 0.74803,-0.1518 1.05941,-0.2734 v -3.3035 h -2.67701 v -2.939 h 6.83491 v 8.1791"
           style="fill:#000000;fill-opacity:1" />
        <path
           inkscape:connector-curvature="0"
           id="path9401-6-6"
           d="m 450.84607,1024.3416 h -6.8577 l -1.08219,3.0985 h -4.40852 l 6.29951,-17.0076 h 5.22871 l 6.29951,17.0076 h -4.40852 l -1.0708,-3.0985 m -5.76411,-3.1555 h 4.65913 l -2.32387,-6.7665 -2.33526,6.7665"
           style="fill:#000000;fill-opacity:1" />
        <path
           inkscape:connector-curvature="0"
           id="path9403-1-6"
           d="m 457.84046,1010.4325 h 4.38573 v 10.1954 c -10e-6,1.405 0.22782,2.4112 0.68349,3.0188 0.46325,0.5999 1.21509,0.8999 2.25552,0.8999 1.04801,0 1.79985,-0.3 2.25552,-0.8999 0.46325,-0.6076 0.69487,-1.6138 0.69488,-3.0188 v -10.1954 h 4.38574 v 10.1954 c -2e-5,2.4074 -0.60377,4.1997 -1.81125,5.3768 -1.20752,1.1772 -3.04914,1.7657 -5.52489,1.7657 -2.46817,0 -4.306,-0.5885 -5.51349,-1.7657 -1.2075,-1.1771 -1.81125,-2.9694 -1.81125,-5.3768 v -10.1954"
           style="fill:#000000;fill-opacity:1" />
        <path
           inkscape:connector-curvature="0"
           id="path9405-5-1"
           d="m 488.63172,1010.9679 v 3.5998 c -0.93411,-0.4177 -1.84543,-0.7329 -2.73396,-0.9455 -0.88855,-0.2127 -1.72772,-0.319 -2.51752,-0.319 -1.04803,0 -1.82265,0.1443 -2.32387,0.4329 -0.50124,0.2886 -0.75185,0.7366 -0.75184,1.3442 -10e-6,0.4556 0.16707,0.8126 0.50122,1.0708 0.34174,0.2506 0.95688,0.467 1.84543,0.6493 l 1.86821,0.3759 c 1.89098,0.3797 3.23518,0.9569 4.03259,1.7315 0.7974,0.7746 1.1961,1.8758 1.19611,3.3036 -10e-6,1.8758 -0.5582,3.2731 -1.67455,4.192 -1.10879,0.9114 -2.80612,1.367 -5.09201,1.367 -1.0784,0 -2.16059,-0.1025 -3.24658,-0.3076 -1.08599,-0.205 -2.17198,-0.5088 -3.25797,-0.9113 v -3.7022 c 1.08599,0.5772 2.134,1.0138 3.14406,1.31 1.01763,0.2886 1.9973,0.4329 2.93901,0.4329 0.95688,0 1.68973,-0.1595 2.19856,-0.4785 0.50881,-0.3189 0.76322,-0.7746 0.76323,-1.3669 -10e-6,-0.5316 -0.17468,-0.9417 -0.52401,-1.2303 -0.34175,-0.2886 -1.02904,-0.5468 -2.06186,-0.7746 l -1.69734,-0.376 c -1.70114,-0.3645 -2.94661,-0.9455 -3.73642,-1.7429 -0.78222,-0.7974 -1.17332,-1.872 -1.17332,-3.2238 0,-1.6935 0.54679,-2.9959 1.64038,-3.9073 1.09358,-0.9113 2.6656,-1.3669 4.71608,-1.3669 0.9341,0 1.89478,0.072 2.88206,0.2164 0.98725,0.1367 2.00869,0.3456 3.06431,0.6265"
           style="fill:#000000;fill-opacity:1" />
        <path
           inkscape:connector-curvature="0"
           id="path9407-2-9"
           d="m 504.39759,1010.9679 v 3.5998 c -0.93412,-0.4177 -1.84544,-0.7329 -2.73397,-0.9455 -0.88855,-0.2127 -1.72772,-0.319 -2.51752,-0.319 -1.04803,0 -1.82265,0.1443 -2.32387,0.4329 -0.50123,0.2886 -0.75185,0.7366 -0.75184,1.3442 -10e-6,0.4556 0.16707,0.8126 0.50123,1.0708 0.34173,0.2506 0.95688,0.467 1.84542,0.6493 l 1.86821,0.3759 c 1.89098,0.3797 3.23518,0.9569 4.0326,1.7315 0.79739,0.7746 1.19609,1.8758 1.19611,3.3036 -2e-5,1.8758 -0.5582,3.2731 -1.67456,4.192 -1.10878,0.9114 -2.80612,1.367 -5.09201,1.367 -1.0784,0 -2.16059,-0.1025 -3.24658,-0.3076 -1.08599,-0.205 -2.17198,-0.5088 -3.25797,-0.9113 v -3.7022 c 1.08599,0.5772 2.13401,1.0138 3.14406,1.31 1.01763,0.2886 1.9973,0.4329 2.93901,0.4329 0.95688,0 1.68973,-0.1595 2.19856,-0.4785 0.50881,-0.3189 0.76322,-0.7746 0.76323,-1.3669 -10e-6,-0.5316 -0.17468,-0.9417 -0.52401,-1.2303 -0.34175,-0.2886 -1.02904,-0.5468 -2.06186,-0.7746 l -1.69734,-0.376 c -1.70114,-0.3645 -2.94661,-0.9455 -3.73641,-1.7429 -0.78222,-0.7974 -1.17333,-1.872 -1.17333,-3.2238 0,-1.6935 0.54679,-2.9959 1.64038,-3.9073 1.09358,-0.9113 2.66561,-1.3669 4.71609,-1.3669 0.93409,0 1.89477,0.072 2.88205,0.2164 0.98725,0.1367 2.00869,0.3456 3.06432,0.6265"
           style="fill:#000000;fill-opacity:1" />
      </g>
      <g
         id="text1764-3-4-2"
         style="font-style:normal;font-variant:normal;font-weight:normal;font-stretch:normal;font-size:5.05505px;line-height:100%;font-family:Verdana;writing-mode:lr-tb;text-anchor:start;fill:#050505;fill-opacity:1;stroke:none"
         transform="matrix(1.3177925,0,0,0.8370214,618.38905,-1667.1157)">
        <path
           inkscape:connector-curvature="0"
           id="path9410-0-4"
           d="m 354.56415,1233.9703 c 0,-0.3291 -0.0683,-0.5841 -0.20487,-0.7652 -0.13493,-0.181 -0.32499,-0.2715 -0.57017,-0.2715 -0.24354,0 -0.4336,0.091 -0.57017,0.2715 -0.13494,0.1811 -0.2024,0.4361 -0.2024,0.7652 0,0.3275 0.0675,0.5817 0.2024,0.7627 0.13657,0.181 0.32663,0.2715 0.57017,0.2715 0.24518,0 0.43524,-0.091 0.57017,-0.2715 0.13658,-0.181 0.20487,-0.4352 0.20487,-0.7627 m 0.45417,1.0713 c -1e-5,0.4706 -0.1045,0.8202 -0.31348,1.049 -0.20898,0.2303 -0.52903,0.3455 -0.96016,0.3455 -0.15962,0 -0.31018,-0.012 -0.4517,-0.037 -0.14151,-0.023 -0.27891,-0.059 -0.4122,-0.1086 v -0.4418 c 0.13329,0.072 0.26493,0.1259 0.39493,0.1604 0.12999,0.035 0.26246,0.052 0.39739,0.052 0.29784,0 0.52081,-0.078 0.66891,-0.2345 0.14809,-0.1547 0.22214,-0.3892 0.22214,-0.7035 v -0.2246 c -0.0938,0.1629 -0.21392,0.2847 -0.36037,0.3653 -0.14645,0.081 -0.3217,0.1209 -0.52574,0.1209 -0.33898,0 -0.61214,-0.1291 -0.81947,-0.3875 -0.20734,-0.2583 -0.31101,-0.6006 -0.31101,-1.0268 0,-0.4278 0.10367,-0.7709 0.31101,-1.0293 0.20733,-0.2583 0.48049,-0.3875 0.81947,-0.3875 0.20404,0 0.37929,0.04 0.52574,0.121 0.14645,0.081 0.26657,0.2024 0.36037,0.3653 v -0.4196 h 0.45417 v 2.4214"
           style="fill:#050505;fill-opacity:1" />
        <path
           inkscape:connector-curvature="0"
           id="path9412-6-8"
           d="m 358.31841,1233.8889 v 0.2221 h -2.08817 c 0.0198,0.3127 0.11354,0.5513 0.28139,0.7158 0.16948,0.1629 0.40479,0.2444 0.70593,0.2444 0.17442,0 0.34309,-0.021 0.50599,-0.064 0.16455,-0.043 0.32746,-0.107 0.48873,-0.1925 v 0.4295 c -0.16291,0.069 -0.32993,0.1217 -0.50107,0.1579 -0.17113,0.036 -0.34474,0.054 -0.5208,0.054 -0.44101,0 -0.79068,-0.1283 -1.04903,-0.385 -0.2567,-0.2567 -0.38505,-0.6039 -0.38505,-1.0416 0,-0.4526 0.12177,-0.8113 0.36531,-1.0762 0.24518,-0.2666 0.57511,-0.3999 0.98978,-0.3999 0.37189,0 0.66561,0.1201 0.88118,0.3604 0.2172,0.2386 0.32581,0.5636 0.32581,0.975 m -0.45416,-0.1333 c -0.003,-0.2485 -0.0732,-0.4468 -0.20981,-0.5949 -0.13493,-0.1481 -0.31429,-0.2221 -0.53808,-0.2221 -0.25342,0 -0.45664,0.072 -0.60967,0.2147 -0.15139,0.1432 -0.2386,0.3448 -0.26164,0.6047 h 1.6192"
           style="fill:#050505;fill-opacity:1" />
        <path
           inkscape:connector-curvature="0"
           id="path9414-9-5"
           d="m 360.13507,1232.9386 c -0.24354,0 -0.43607,0.095 -0.57758,0.2863 -0.14152,0.1892 -0.21227,0.4492 -0.21227,0.78 0,0.3307 0.0699,0.5915 0.2098,0.7824 0.14152,0.1893 0.33486,0.2839 0.58005,0.2839 0.24189,0 0.43359,-0.096 0.57511,-0.2863 0.14151,-0.1909 0.21227,-0.4509 0.21227,-0.78 0,-0.3275 -0.0708,-0.5867 -0.21227,-0.7775 -0.14152,-0.1926 -0.33322,-0.2888 -0.57511,-0.2888 m 0,-0.3851 c 0.39492,0 0.7051,0.1284 0.93054,0.3851 0.22544,0.2567 0.33815,0.6121 0.33816,1.0663 -1e-5,0.4525 -0.11272,0.8079 -0.33816,1.0663 -0.22544,0.2567 -0.53562,0.385 -0.93054,0.385 -0.39657,0 -0.70758,-0.1283 -0.93301,-0.385 -0.22379,-0.2584 -0.33569,-0.6138 -0.33569,-1.0663 0,-0.4542 0.1119,-0.8096 0.33569,-1.0663 0.22543,-0.2567 0.53644,-0.3851 0.93301,-0.3851"
           style="fill:#050505;fill-opacity:1" />
        <path
           inkscape:connector-curvature="0"
           id="path9416-2-4"
           d="m 362.60335,1231.8353 v 0.7849 h 0.93548 v 0.3529 h -0.93548 v 1.5007 c 0,0.2255 0.0304,0.3703 0.0913,0.4345 0.0625,0.064 0.18841,0.096 0.37765,0.096 h 0.4665 v 0.3801 h -0.4665 c -0.3505,0 -0.59239,-0.065 -0.72568,-0.195 -0.13329,-0.1316 -0.19993,-0.3702 -0.19993,-0.7158 v -1.5007 h -0.33322 v -0.3529 h 0.33322 v -0.7849 h 0.45663"
           style="fill:#050505;fill-opacity:1" />
        <path
           inkscape:connector-curvature="0"
           id="path9418-1-7"
           d="m 366.50324,1233.8889 v 0.2221 h -2.08817 c 0.0197,0.3127 0.11354,0.5513 0.28139,0.7158 0.16949,0.1629 0.4048,0.2444 0.70593,0.2444 0.17442,0 0.34309,-0.021 0.506,-0.064 0.16455,-0.043 0.32745,-0.107 0.48872,-0.1925 v 0.4295 c -0.16291,0.069 -0.32993,0.1217 -0.50106,0.1579 -0.17114,0.036 -0.34474,0.054 -0.52081,0.054 -0.441,0 -0.79068,-0.1283 -1.04902,-0.385 -0.25671,-0.2567 -0.38506,-0.6039 -0.38506,-1.0416 0,-0.4526 0.12177,-0.8113 0.36531,-1.0762 0.24518,-0.2666 0.57511,-0.3999 0.98978,-0.3999 0.37189,0 0.66561,0.1201 0.88118,0.3604 0.21721,0.2386 0.32581,0.5636 0.32581,0.975 m -0.45416,-0.1333 c -0.003,-0.2485 -0.0732,-0.4468 -0.20981,-0.5949 -0.13493,-0.1481 -0.31429,-0.2221 -0.53808,-0.2221 -0.25341,0 -0.45664,0.072 -0.60967,0.2147 -0.15139,0.1432 -0.2386,0.3448 -0.26164,0.6047 h 1.6192"
           style="fill:#050505;fill-opacity:1" />
        <path
           inkscape:connector-curvature="0"
           id="path9420-3-1"
           d="m 369.2381,1232.7263 v 0.4245 c -0.12835,-0.071 -0.25752,-0.1234 -0.38752,-0.1579 -0.12835,-0.036 -0.25835,-0.054 -0.38999,-0.054 -0.29455,0 -0.52328,0.094 -0.68618,0.2814 -0.16291,0.1859 -0.24436,0.4475 -0.24436,0.7849 0,0.3373 0.0814,0.5998 0.24436,0.7874 0.1629,0.1859 0.39163,0.2789 0.68618,0.2789 0.13164,0 0.26164,-0.017 0.38999,-0.052 0.13,-0.036 0.25917,-0.09 0.38752,-0.1604 v 0.4196 c -0.12671,0.059 -0.25835,0.1037 -0.39492,0.1333 -0.13494,0.03 -0.27892,0.044 -0.43195,0.044 -0.41632,0 -0.74707,-0.1308 -0.99225,-0.3924 -0.24519,-0.2617 -0.36778,-0.6146 -0.36778,-1.0589 0,-0.4509 0.12342,-0.8055 0.37024,-1.0639 0.24848,-0.2583 0.58828,-0.3875 1.01941,-0.3875 0.13986,0 0.27644,0.015 0.40973,0.044 0.13329,0.028 0.26246,0.071 0.38752,0.1283"
           style="fill:#050505;fill-opacity:1" />
        <path
           inkscape:connector-curvature="0"
           id="path9422-0-7"
           d="m 372.33086,1233.7161 v 1.6685 h -0.45416 v -1.6537 c 0,-0.2616 -0.051,-0.4575 -0.15304,-0.5875 -0.10202,-0.13 -0.25505,-0.195 -0.4591,-0.195 -0.24518,0 -0.43853,0.078 -0.58004,0.2345 -0.14152,0.1564 -0.21228,0.3695 -0.21228,0.6393 v 1.5624 h -0.45663 v -2.7644 h 0.45663 v 0.4294 c 0.10861,-0.1661 0.23614,-0.2904 0.38259,-0.3727 0.14809,-0.082 0.31841,-0.1234 0.51093,-0.1234 0.31759,0 0.55783,0.099 0.72074,0.2962 0.16291,0.1958 0.24436,0.4846 0.24436,0.8664"
           style="fill:#050505;fill-opacity:1" />
        <path
           inkscape:connector-curvature="0"
           id="path9424-2-5"
           d="m 374.31289,1232.9386 c -0.24353,0 -0.43606,0.095 -0.57757,0.2863 -0.14152,0.1892 -0.21228,0.4492 -0.21228,0.78 0,0.3307 0.0699,0.5915 0.20981,0.7824 0.14151,0.1893 0.33486,0.2839 0.58004,0.2839 0.24189,0 0.4336,-0.096 0.57511,-0.2863 0.14152,-0.1909 0.21227,-0.4509 0.21228,-0.78 -10e-6,-0.3275 -0.0708,-0.5867 -0.21228,-0.7775 -0.14151,-0.1926 -0.33322,-0.2888 -0.57511,-0.2888 m 0,-0.3851 c 0.39493,0 0.70511,0.1284 0.93055,0.3851 0.22543,0.2567 0.33815,0.6121 0.33815,1.0663 0,0.4525 -0.11272,0.8079 -0.33815,1.0663 -0.22544,0.2567 -0.53562,0.385 -0.93055,0.385 -0.39657,0 -0.70757,-0.1283 -0.93301,-0.385 -0.22379,-0.2584 -0.33568,-0.6138 -0.33568,-1.0663 0,-0.4542 0.11189,-0.8096 0.33568,-1.0663 0.22544,-0.2567 0.53644,-0.3851 0.93301,-0.3851"
           style="fill:#050505;fill-opacity:1" />
        <path
           inkscape:connector-curvature="0"
           id="path9426-4-5"
           d="m 376.33195,1231.544 h 0.45416 v 3.8406 h -0.45416 v -3.8406"
           style="fill:#050505;fill-opacity:1" />
        <path
           inkscape:connector-curvature="0"
           id="path9428-9-8"
           d="m 378.80517,1232.9386 c -0.24354,0 -0.43606,0.095 -0.57758,0.2863 -0.14151,0.1892 -0.21227,0.4492 -0.21227,0.78 0,0.3307 0.0699,0.5915 0.20981,0.7824 0.14151,0.1893 0.33486,0.2839 0.58004,0.2839 0.24189,0 0.4336,-0.096 0.57511,-0.2863 0.14152,-0.1909 0.21227,-0.4509 0.21228,-0.78 -10e-6,-0.3275 -0.0708,-0.5867 -0.21228,-0.7775 -0.14151,-0.1926 -0.33322,-0.2888 -0.57511,-0.2888 m 0,-0.3851 c 0.39493,0 0.70511,0.1284 0.93055,0.3851 0.22543,0.2567 0.33815,0.6121 0.33815,1.0663 0,0.4525 -0.11272,0.8079 -0.33815,1.0663 -0.22544,0.2567 -0.53562,0.385 -0.93055,0.385 -0.39657,0 -0.70757,-0.1283 -0.93301,-0.385 -0.22379,-0.2584 -0.33569,-0.6138 -0.33569,-1.0663 0,-0.4542 0.1119,-0.8096 0.33569,-1.0663 0.22544,-0.2567 0.53644,-0.3851 0.93301,-0.3851"
           style="fill:#050505;fill-opacity:1" />
        <path
           inkscape:connector-curvature="0"
           id="path9430-4-4"
           d="m 382.64336,1233.9703 c -10e-6,-0.3291 -0.0683,-0.5841 -0.20487,-0.7652 -0.13494,-0.181 -0.32499,-0.2715 -0.57018,-0.2715 -0.24353,0 -0.43359,0.091 -0.57017,0.2715 -0.13493,0.1811 -0.2024,0.4361 -0.2024,0.7652 0,0.3275 0.0675,0.5817 0.2024,0.7627 0.13658,0.181 0.32664,0.2715 0.57017,0.2715 0.24519,0 0.43524,-0.091 0.57018,-0.2715 0.13657,-0.181 0.20486,-0.4352 0.20487,-0.7627 m 0.45416,1.0713 c 0,0.4706 -0.10449,0.8202 -0.31347,1.049 -0.20899,0.2303 -0.52904,0.3455 -0.96017,0.3455 -0.15961,0 -0.31018,-0.012 -0.45169,-0.037 -0.14152,-0.023 -0.27892,-0.059 -0.4122,-0.1086 v -0.4418 c 0.13328,0.072 0.26492,0.1259 0.39492,0.1604 0.13,0.035 0.26246,0.052 0.39739,0.052 0.29784,0 0.52081,-0.078 0.66891,-0.2345 0.14809,-0.1547 0.22214,-0.3892 0.22215,-0.7035 v -0.2246 c -0.0938,0.1629 -0.21392,0.2847 -0.36037,0.3653 -0.14646,0.081 -0.32171,0.1209 -0.52575,0.1209 -0.33898,0 -0.61213,-0.1291 -0.81947,-0.3875 -0.20734,-0.2583 -0.311,-0.6006 -0.311,-1.0268 0,-0.4278 0.10366,-0.7709 0.311,-1.0293 0.20734,-0.2583 0.48049,-0.3875 0.81947,-0.3875 0.20404,0 0.37929,0.04 0.52575,0.121 0.14645,0.081 0.26657,0.2024 0.36037,0.3653 v -0.4196 h 0.45416 v 2.4214"
           style="fill:#050505;fill-opacity:1" />
        <path
           inkscape:connector-curvature="0"
           id="path9432-5-8"
           d="m 384.033,1232.6202 h 0.45416 v 2.7644 H 384.033 v -2.7644 m 0,-1.0762 h 0.45416 v 0.5751 H 384.033 v -0.5751"
           style="fill:#050505;fill-opacity:1" />
        <path
           inkscape:connector-curvature="0"
           id="path9434-5-1"
           d="m 386.69134,1233.995 c -0.36695,0 -0.62118,0.042 -0.7627,0.1259 -0.14151,0.084 -0.21227,0.2271 -0.21227,0.4295 0,0.1612 0.0527,0.2896 0.15797,0.385 0.10696,0.094 0.25176,0.1407 0.43442,0.1407 0.25176,0 0.45334,-0.089 0.60473,-0.2666 0.15303,-0.1793 0.22955,-0.4171 0.22955,-0.7133 v -0.1012 h -0.4517 m 0.90586,-0.1876 v 1.5772 h -0.45416 v -0.4196 c -0.10367,0.1679 -0.23284,0.2921 -0.38752,0.3727 -0.15468,0.079 -0.34392,0.1185 -0.56771,0.1185 -0.28303,0 -0.50846,-0.079 -0.67631,-0.2369 -0.1662,-0.1596 -0.24929,-0.3727 -0.24929,-0.6393 0,-0.311 0.10366,-0.5455 0.311,-0.7035 0.20898,-0.1579 0.51998,-0.2369 0.93301,-0.2369 h 0.63682 v -0.044 c 0,-0.2089 -0.0691,-0.3702 -0.20734,-0.4837 -0.13658,-0.1152 -0.3291,-0.1728 -0.57758,-0.1728 -0.15797,0 -0.31182,0.019 -0.46157,0.057 -0.14974,0.038 -0.29372,0.095 -0.43194,0.1704 v -0.4197 c 0.16619,-0.064 0.32745,-0.1118 0.48378,-0.1431 0.15632,-0.033 0.30853,-0.049 0.45663,-0.049 0.39986,0 0.69852,0.1037 0.89599,0.311 0.19746,0.2074 0.29619,0.5217 0.29619,0.9429"
           style="fill:#050505;fill-opacity:1" />
        <path
           inkscape:connector-curvature="0"
           id="path9436-7-9"
           d="m 392.50909,1233.8889 v 0.2221 h -2.08817 c 0.0197,0.3127 0.11354,0.5513 0.28138,0.7158 0.16949,0.1629 0.4048,0.2444 0.70593,0.2444 0.17442,0 0.34309,-0.021 0.506,-0.064 0.16455,-0.043 0.32746,-0.107 0.48872,-0.1925 v 0.4295 c -0.16291,0.069 -0.32993,0.1217 -0.50106,0.1579 -0.17114,0.036 -0.34474,0.054 -0.52081,0.054 -0.441,0 -0.79067,-0.1283 -1.04902,-0.385 -0.2567,-0.2567 -0.38505,-0.6039 -0.38505,-1.0416 0,-0.4526 0.12177,-0.8113 0.3653,-1.0762 0.24519,-0.2666 0.57511,-0.3999 0.98979,-0.3999 0.37188,0 0.66561,0.1201 0.88117,0.3604 0.21721,0.2386 0.32581,0.5636 0.32582,0.975 m -0.45417,-0.1333 c -0.003,-0.2485 -0.0732,-0.4468 -0.2098,-0.5949 -0.13494,-0.1481 -0.3143,-0.2221 -0.53809,-0.2221 -0.25341,0 -0.45663,0.072 -0.60966,0.2147 -0.15139,0.1432 -0.23861,0.3448 -0.26164,0.6047 h 1.61919"
           style="fill:#050505;fill-opacity:1" />
        <path
           inkscape:connector-curvature="0"
           id="path9438-6-7"
           d="m 397.22845,1233.8889 v 0.2221 h -2.08817 c 0.0197,0.3127 0.11354,0.5513 0.28138,0.7158 0.16949,0.1629 0.4048,0.2444 0.70593,0.2444 0.17443,0 0.34309,-0.021 0.506,-0.064 0.16455,-0.043 0.32746,-0.107 0.48872,-0.1925 v 0.4295 c -0.16291,0.069 -0.32993,0.1217 -0.50106,0.1579 -0.17114,0.036 -0.34474,0.054 -0.52081,0.054 -0.441,0 -0.79067,-0.1283 -1.04902,-0.385 -0.2567,-0.2567 -0.38505,-0.6039 -0.38505,-1.0416 0,-0.4526 0.12177,-0.8113 0.3653,-1.0762 0.24519,-0.2666 0.57511,-0.3999 0.98979,-0.3999 0.37188,0 0.66561,0.1201 0.88117,0.3604 0.21721,0.2386 0.32581,0.5636 0.32582,0.975 m -0.45417,-0.1333 c -0.003,-0.2485 -0.0732,-0.4468 -0.2098,-0.5949 -0.13494,-0.1481 -0.3143,-0.2221 -0.53809,-0.2221 -0.25341,0 -0.45663,0.072 -0.60966,0.2147 -0.15139,0.1432 -0.23861,0.3448 -0.26164,0.6047 h 1.61919"
           style="fill:#050505;fill-opacity:1" />
        <path
           inkscape:connector-curvature="0"
           id="path9440-2-2"
           d="m 400.27184,1233.7161 v 1.6685 h -0.45416 v -1.6537 c -10e-6,-0.2616 -0.051,-0.4575 -0.15304,-0.5875 -0.10202,-0.13 -0.25505,-0.195 -0.4591,-0.195 -0.24518,0 -0.43853,0.078 -0.58004,0.2345 -0.14152,0.1564 -0.21228,0.3695 -0.21228,0.6393 v 1.5624 h -0.45663 v -2.7644 h 0.45663 v 0.4294 c 0.10861,-0.1661 0.23613,-0.2904 0.38259,-0.3727 0.14809,-0.082 0.3184,-0.1234 0.51093,-0.1234 0.31759,0 0.55783,0.099 0.72074,0.2962 0.16291,0.1958 0.24436,0.4846 0.24436,0.8664"
           style="fill:#050505;fill-opacity:1" />
        <path
           inkscape:connector-curvature="0"
           id="path9442-5-1"
           d="m 403.00177,1233.9703 c -1e-5,-0.3291 -0.0683,-0.5841 -0.20487,-0.7652 -0.13494,-0.181 -0.32499,-0.2715 -0.57018,-0.2715 -0.24353,0 -0.43359,0.091 -0.57017,0.2715 -0.13493,0.1811 -0.2024,0.4361 -0.2024,0.7652 0,0.3275 0.0675,0.5817 0.2024,0.7627 0.13658,0.181 0.32664,0.2715 0.57017,0.2715 0.24519,0 0.43524,-0.091 0.57018,-0.2715 0.13657,-0.181 0.20486,-0.4352 0.20487,-0.7627 m 0.45416,1.0713 c 0,0.4706 -0.10449,0.8202 -0.31347,1.049 -0.20899,0.2303 -0.52904,0.3455 -0.96017,0.3455 -0.15961,0 -0.31018,-0.012 -0.45169,-0.037 -0.14152,-0.023 -0.27892,-0.059 -0.4122,-0.1086 v -0.4418 c 0.13328,0.072 0.26492,0.1259 0.39492,0.1604 0.13,0.035 0.26246,0.052 0.39739,0.052 0.29784,0 0.52081,-0.078 0.66891,-0.2345 0.14809,-0.1547 0.22214,-0.3892 0.22215,-0.7035 v -0.2246 c -0.0938,0.1629 -0.21392,0.2847 -0.36037,0.3653 -0.14646,0.081 -0.32171,0.1209 -0.52575,0.1209 -0.33898,0 -0.61213,-0.1291 -0.81947,-0.3875 -0.20734,-0.2583 -0.311,-0.6006 -0.311,-1.0268 0,-0.4278 0.10366,-0.7709 0.311,-1.0293 0.20734,-0.2583 0.48049,-0.3875 0.81947,-0.3875 0.20404,0 0.37929,0.04 0.52575,0.121 0.14645,0.081 0.26657,0.2024 0.36037,0.3653 v -0.4196 h 0.45416 v 2.4214"
           style="fill:#050505;fill-opacity:1" />
        <path
           inkscape:connector-curvature="0"
           id="path9444-5-8"
           d="m 406.75603,1233.8889 v 0.2221 h -2.08817 c 0.0197,0.3127 0.11354,0.5513 0.28138,0.7158 0.16949,0.1629 0.4048,0.2444 0.70593,0.2444 0.17443,0 0.34309,-0.021 0.506,-0.064 0.16455,-0.043 0.32746,-0.107 0.48872,-0.1925 v 0.4295 c -0.16291,0.069 -0.32993,0.1217 -0.50106,0.1579 -0.17114,0.036 -0.34474,0.054 -0.52081,0.054 -0.441,0 -0.79067,-0.1283 -1.04902,-0.385 -0.2567,-0.2567 -0.38505,-0.6039 -0.38505,-1.0416 0,-0.4526 0.12177,-0.8113 0.3653,-1.0762 0.24519,-0.2666 0.57511,-0.3999 0.98979,-0.3999 0.37188,0 0.66561,0.1201 0.88117,0.3604 0.21721,0.2386 0.32581,0.5636 0.32582,0.975 m -0.45417,-0.1333 c -0.003,-0.2485 -0.0732,-0.4468 -0.2098,-0.5949 -0.13494,-0.1481 -0.3143,-0.2221 -0.53809,-0.2221 -0.25341,0 -0.45663,0.072 -0.60966,0.2147 -0.15139,0.1432 -0.23861,0.3448 -0.26164,0.6047 h 1.61919"
           style="fill:#050505;fill-opacity:1" />
        <path
           inkscape:connector-curvature="0"
           id="path9446-9-3"
           d="m 409.79942,1233.7161 v 1.6685 h -0.45416 v -1.6537 c 0,-0.2616 -0.051,-0.4575 -0.15304,-0.5875 -0.10202,-0.13 -0.25505,-0.195 -0.4591,-0.195 -0.24518,0 -0.43853,0.078 -0.58004,0.2345 -0.14152,0.1564 -0.21228,0.3695 -0.21228,0.6393 v 1.5624 h -0.45663 v -2.7644 h 0.45663 v 0.4294 c 0.10861,-0.1661 0.23614,-0.2904 0.38259,-0.3727 0.14809,-0.082 0.3184,-0.1234 0.51093,-0.1234 0.31759,0 0.55783,0.099 0.72074,0.2962 0.16291,0.1958 0.24436,0.4846 0.24436,0.8664"
           style="fill:#050505;fill-opacity:1" />
        <path
           inkscape:connector-curvature="0"
           id="path9448-5-3"
           d="m 413.00819,1233.7161 v 1.6685 h -0.45416 v -1.6537 c 0,-0.2616 -0.051,-0.4575 -0.15304,-0.5875 -0.10202,-0.13 -0.25505,-0.195 -0.4591,-0.195 -0.24518,0 -0.43853,0.078 -0.58004,0.2345 -0.14152,0.1564 -0.21228,0.3695 -0.21228,0.6393 v 1.5624 h -0.45663 v -3.8406 h 0.45663 v 1.5056 c 0.10861,-0.1661 0.23614,-0.2904 0.38259,-0.3727 0.14809,-0.082 0.31841,-0.1234 0.51093,-0.1234 0.31759,0 0.55783,0.099 0.72074,0.2962 0.16291,0.1958 0.24436,0.4846 0.24436,0.8664"
           style="fill:#050505;fill-opacity:1" />
        <path
           inkscape:connector-curvature="0"
           id="path9450-4-8"
           d="m 415.17534,1233.995 c -0.36695,0 -0.62118,0.042 -0.7627,0.1259 -0.14151,0.084 -0.21227,0.2271 -0.21227,0.4295 0,0.1612 0.0527,0.2896 0.15797,0.385 0.10696,0.094 0.25177,0.1407 0.43442,0.1407 0.25176,0 0.45334,-0.089 0.60473,-0.2666 0.15303,-0.1793 0.22955,-0.4171 0.22955,-0.7133 v -0.1012 h -0.4517 m 0.90586,-0.1876 v 1.5772 h -0.45416 v -0.4196 c -0.10367,0.1679 -0.23284,0.2921 -0.38752,0.3727 -0.15468,0.079 -0.34392,0.1185 -0.56771,0.1185 -0.28303,0 -0.50846,-0.079 -0.67631,-0.2369 -0.16619,-0.1596 -0.24929,-0.3727 -0.24929,-0.6393 0,-0.311 0.10366,-0.5455 0.311,-0.7035 0.20898,-0.1579 0.51998,-0.2369 0.93301,-0.2369 h 0.63682 v -0.044 c 0,-0.2089 -0.0691,-0.3702 -0.20734,-0.4837 -0.13658,-0.1152 -0.3291,-0.1728 -0.57757,-0.1728 -0.15798,0 -0.31183,0.019 -0.46157,0.057 -0.14975,0.038 -0.29373,0.095 -0.43195,0.1704 v -0.4197 c 0.16619,-0.064 0.32745,-0.1118 0.48378,-0.1431 0.15632,-0.033 0.30853,-0.049 0.45663,-0.049 0.39986,0 0.69852,0.1037 0.89599,0.311 0.19746,0.2074 0.29619,0.5217 0.29619,0.9429"
           style="fill:#050505;fill-opacity:1" />
        <path
           inkscape:connector-curvature="0"
           id="path9452-9-1"
           d="m 418.62107,1233.0447 c -0.051,-0.03 -0.10697,-0.051 -0.16785,-0.064 -0.0592,-0.015 -0.12506,-0.022 -0.19746,-0.022 -0.2567,0 -0.45417,0.084 -0.59239,0.2518 -0.13658,0.1662 -0.20487,0.4056 -0.20487,0.7183 v 1.4562 h -0.45663 v -2.7644 h 0.45663 v 0.4294 c 0.0954,-0.1678 0.21968,-0.292 0.37271,-0.3727 0.15304,-0.082 0.33898,-0.1234 0.55784,-0.1234 0.0313,0 0.0658,0 0.10367,0.01 0.0378,0 0.0798,0.01 0.12588,0.017 l 0.002,0.4665"
           style="fill:#050505;fill-opacity:1" />
        <path
           inkscape:connector-curvature="0"
           id="path9454-1-7"
           d="m 419.10239,1232.6202 h 0.45416 v 2.7644 h -0.45416 v -2.7644 m 0,-1.0762 h 0.45416 v 0.5751 h -0.45416 v -0.5751"
           style="fill:#050505;fill-opacity:1" />
        <path
           inkscape:connector-curvature="0"
           id="path9456-7-5"
           d="m 421.76073,1233.995 c -0.36696,0 -0.62119,0.042 -0.7627,0.1259 -0.14152,0.084 -0.21228,0.2271 -0.21227,0.4295 -10e-6,0.1612 0.0527,0.2896 0.15797,0.385 0.10695,0.094 0.25176,0.1407 0.43441,0.1407 0.25177,0 0.45334,-0.089 0.60473,-0.2666 0.15304,-0.1793 0.22955,-0.4171 0.22955,-0.7133 v -0.1012 h -0.45169 m 0.90586,-0.1876 v 1.5772 h -0.45417 v -0.4196 c -0.10367,0.1679 -0.23284,0.2921 -0.38752,0.3727 -0.15468,0.079 -0.34391,0.1185 -0.5677,0.1185 -0.28303,0 -0.50847,-0.079 -0.67631,-0.2369 -0.1662,-0.1596 -0.2493,-0.3727 -0.2493,-0.6393 0,-0.311 0.10367,-0.5455 0.31101,-0.7035 0.20898,-0.1579 0.51998,-0.2369 0.93301,-0.2369 h 0.63681 v -0.044 c 0,-0.2089 -0.0691,-0.3702 -0.20733,-0.4837 -0.13658,-0.1152 -0.32911,-0.1728 -0.57758,-0.1728 -0.15797,0 -0.31183,0.019 -0.46157,0.057 -0.14974,0.038 -0.29373,0.095 -0.43195,0.1704 v -0.4197 c 0.1662,-0.064 0.32746,-0.1118 0.48378,-0.1431 0.15633,-0.033 0.30854,-0.049 0.45664,-0.049 0.39986,0 0.69852,0.1037 0.89598,0.311 0.19746,0.2074 0.2962,0.5217 0.2962,0.9429"
           style="fill:#050505;fill-opacity:1" />
      </g>
    </g>
  </g>
</svg>
