<?xml version="1.0" encoding="UTF-8" standalone="no"?>
<!-- Uploaded to: SVG Repo, www.svgrepo.com, Generator: SVG Repo Mixer Tools -->

<svg
   version="1.1"
   id="Layer_1"
   viewBox="0 0 495 512"
   xml:space="preserve"
   sodipodi:docname="mapa_globo_preto.svg"
   width="495"
   height="512"
   inkscape:version="1.3.2 (091e20e, 2023-11-25, custom)"
   xmlns:inkscape="http://www.inkscape.org/namespaces/inkscape"
   xmlns:sodipodi="http://sodipodi.sourceforge.net/DTD/sodipodi-0.dtd"
   xmlns="http://www.w3.org/2000/svg"
   xmlns:svg="http://www.w3.org/2000/svg"><defs
   id="defs8" /><sodipodi:namedview
   id="namedview8"
   pagecolor="#ffffff"
   bordercolor="#000000"
   borderopacity="0.25"
   inkscape:showpageshadow="2"
   inkscape:pageopacity="0.0"
   inkscape:pagecheckerboard="0"
   inkscape:deskcolor="#d1d1d1"
   inkscape:zoom="1.6035156"
   inkscape:cx="255.68819"
   inkscape:cy="188.02436"
   inkscape:window-width="1920"
   inkscape:window-height="1017"
   inkscape:window-x="-8"
   inkscape:window-y="-8"
   inkscape:window-maximized="1"
   inkscape:current-layer="Layer_1" />










<g
   id="g8"
   transform="rotate(25.088246,361.72388,-44.900264)"
   inkscape:transform-center-x="-258.07825"
   inkscape:transform-center-y="-51.89897"><path
     style="fill:#4baf78"
     d="m 441.92,111.915 c 33.922,41.418 54.277,94.378 54.277,152.091 0,132.657 -107.539,240.196 -240.196,240.196 -132.657,0 -240.197,-107.539 -240.197,-240.195 0,-132.656 107.539,-240.197 240.197,-240.197 28.067,0 55.01,4.814 80.048,13.661"
     id="path1" /><path
     style="fill:#75c0c7"
     d="m 256.001,23.81 v 0 c -169.26,115.404 -169.26,364.989 0,480.393 v 0"
     id="path2" /><path
     style="fill:#e0dccd"
     d="m 255.999,23.81 c -132.657,0 -240.196,107.539 -240.196,240.196 0,132.657 107.539,240.196 240.196,240.196 v 0 C 86.741,388.798 86.741,139.214 255.999,23.81 Z"
     id="path3" /><path
     style="fill:#fcbb3b"
     d="m 256.001,23.81 c 132.657,0 240.196,107.539 240.196,240.196 0,132.657 -107.54,240.196 -240.196,240.196 v 0 c 169.258,-115.404 169.258,-364.988 0,-480.392 z"
     id="path4" /><path
     style="fill:#75c0c7"
     d="m 456.164,71.849 c 0,35.375 -64.052,120.099 -64.052,120.099 0,0 -64.052,-84.724 -64.052,-120.099 0,-35.375 28.678,-64.052 64.052,-64.052 35.374,0 64.052,28.677 64.052,64.052 z"
     id="path5" /><path
     style="fill:#589095"
     d="m 368.092,71.849 c 0,-28.378 18.473,-52.407 44.036,-60.818 -6.303,-2.074 -13.02,-3.234 -20.017,-3.234 -35.375,0 -64.052,28.678 -64.052,64.052 0,35.374 64.052,120.099 64.052,120.099 0,0 8.876,-11.743 20.017,-28.302 -18.793,-27.934 -44.036,-69.587 -44.036,-91.797 z"
     id="path6" /><circle
     style="fill:#ffffff"
     cx="392.10901"
     cy="71.847"
     r="40.033001"
     id="circle6" /><path
     d="M 443.788,111.802 C 451.871,94.981 455.955,81.606 455.955,71.849 455.955,32.231 423.723,0 384.105,0 360.641,0 339.779,11.311 326.664,28.763 301.372,20.306 274.93,16.012 247.994,16.012 181.752,16.012 119.477,41.808 72.636,88.647 25.797,135.488 0,197.764 0,264.006 0,330.248 25.796,392.524 72.635,439.365 119.476,486.204 181.752,512 247.993,512 c 66.241,0 128.519,-25.796 175.359,-72.635 46.84,-46.841 72.635,-109.117 72.635,-175.359 10e-4,-55.077 -18.498,-108.875 -52.199,-152.204 z m 36.497,145.497 h -97.632 c -0.501,-22.366 -3.506,-44.618 -8.886,-66.221 2.421,3.321 3.925,5.314 4.119,5.571 l 6.219,8.226 6.219,-8.226 c 0.663,-0.876 16.405,-21.751 32.418,-47.351 4.902,-7.838 9.262,-15.218 13.086,-22.138 27.505,37.756 43.094,83.295 44.457,130.139 z M 384.105,15.594 c 31.02,0 56.255,25.235 56.255,56.254 0,24.071 -36.23,79.227 -56.256,106.961 -20.026,-27.728 -56.253,-82.873 -56.253,-106.961 0,-31.018 25.235,-56.254 56.254,-56.254 z M 255.322,38.7 c 26.357,19.899 48.496,43.549 66.131,70.635 -21.504,5.698 -43.781,8.873 -66.131,9.457 z m 0,353.304 c 25.769,0.642 50.966,4.674 75.086,11.936 -18.871,33.312 -44.053,61.942 -75.086,85.371 z M 158.971,104.681 C 140.226,98.518 122.156,90.437 105.222,80.588 139.247,53.993 179.663,37.61 222.668,32.978 197.399,53.497 176.073,77.484 158.971,104.681 Z m 80.757,-65.276 v 79.375 c -9.769,-0.272 -19.521,-1.023 -29.192,-2.295 -12.138,-1.598 -24.165,-4.017 -35.985,-7.17 17.423,-26.757 39.237,-50.164 65.177,-69.91 z m -79.998,95.47 c 2.028,-3.972 4.17,-7.862 6.369,-11.708 13.892,3.935 28.076,6.893 42.403,8.778 10.346,1.362 20.776,2.169 31.227,2.445 V 257.299 H 128.933 c 1.008,-42.642 11.598,-84.831 30.797,-122.424 z m 79.998,138.018 v 103.539 c -28.04,0.749 -55.44,5.302 -81.613,13.483 C 140.26,353.787 130.264,313.58 128.989,272.894 Z m 0,119.138 v 96.576 c -30.604,-23.297 -55.466,-51.689 -74.147,-84.666 23.826,-7.174 48.704,-11.193 74.147,-11.91 z M 222.636,495.03 c -48.088,-5.186 -92.929,-25.082 -129.224,-57.498 17.976,-11.739 37.101,-21.298 57.071,-28.576 18.341,33.174 42.528,62.016 72.153,86.074 z m 122.868,-86.073 c 19.972,7.277 39.097,16.838 57.071,28.577 -36.296,32.416 -81.135,52.312 -129.224,57.498 29.626,-24.06 53.813,-52.902 72.153,-86.075 z m -7.63,-19.043 C 311.41,381.642 283.691,377.076 255.322,376.405 V 272.893 H 367 c -1.275,40.686 -11.271,80.892 -29.126,117.021 z M 255.322,257.299 V 134.4 c 25.244,-0.627 50.415,-4.388 74.589,-11.199 2.191,3.836 4.326,7.714 6.349,11.674 19.198,37.592 29.789,79.782 30.796,122.424 z M 312.279,70.968 C 300.591,57.231 287.597,44.552 273.346,32.977 c 15.377,1.666 30.493,4.861 45.204,9.546 -3.909,8.708 -6.149,18.324 -6.271,28.445 z M 83.663,99.675 c 2.909,-2.909 5.885,-5.725 8.919,-8.459 18.273,11.109 37.873,20.235 58.264,27.197 -1.716,3.088 -3.389,6.208 -5.004,9.37 -20.313,39.777 -31.494,84.418 -32.505,129.517 H 15.698 C 17.375,197.737 41.353,141.985 83.663,99.675 Z M 15.777,272.893 h 97.607 c 1.259,42.394 11.51,84.317 29.863,122.113 -21.523,8.011 -42.103,18.539 -61.394,31.478 C 41.189,384.927 17.941,330.774 15.777,272.893 Z m 398.358,153.591 c -19.293,-12.939 -39.872,-23.468 -61.395,-31.479 18.353,-37.796 28.604,-79.718 29.864,-122.112 h 97.607 c -2.162,57.882 -25.412,112.034 -66.076,153.591 z"
     id="path7" /><path
     d="m 392.111,119.679 c -26.373,0 -47.829,-21.456 -47.829,-47.83 0,-26.373 21.457,-47.829 47.829,-47.829 26.374,0 47.83,21.456 47.83,47.829 0.001,26.373 -21.456,47.83 -47.83,47.83 z m 0,-80.066 c -17.775,0 -32.235,14.46 -32.235,32.235 0,17.775 14.46,32.236 32.235,32.236 17.775,0 32.236,-14.461 32.236,-32.236 0,-17.775 -14.46,-32.235 -32.236,-32.235 z"
     id="path8" /><polygon
     points="399.516,96.16 399.516,79.526 416.15,79.526 416.15,63.932 399.516,63.932 399.516,48.338 383.922,48.338 383.922,63.932 368.328,63.932 368.328,79.526 383.922,79.526 383.922,96.16 "
     id="polygon8" /><rect
     x="383.927"
     y="127.352"
     width="15.594"
     height="15.594"
     id="rect8" /></g>
</svg>
