<?xml version="1.0" encoding="UTF-8" standalone="no"?>
<!-- Uploaded to: SVG Repo, www.svgrepo.com, Generator: SVG Repo Mixer Tools -->

<svg
   version="1.1"
   id="Layer_1"
   viewBox="0 0 512.001 480.00103"
   xml:space="preserve"
   sodipodi:docname="monitor_mapa.svg"
   inkscape:version="1.3.2 (091e20e, 2023-11-25, custom)"
   width="512.00098"
   height="480.00101"
   xmlns:inkscape="http://www.inkscape.org/namespaces/inkscape"
   xmlns:sodipodi="http://sodipodi.sourceforge.net/DTD/sodipodi-0.dtd"
   xmlns="http://www.w3.org/2000/svg"
   xmlns:svg="http://www.w3.org/2000/svg"><defs
   id="defs8" /><sodipodi:namedview
   id="namedview8"
   pagecolor="#ffffff"
   bordercolor="#666666"
   borderopacity="1.0"
   inkscape:showpageshadow="2"
   inkscape:pageopacity="0.0"
   inkscape:pagecheckerboard="0"
   inkscape:deskcolor="#d1d1d1"
   inkscape:zoom="1.5546845"
   inkscape:cx="256.00049"
   inkscape:cy="202.93506"
   inkscape:window-width="1920"
   inkscape:window-height="1017"
   inkscape:window-x="-8"
   inkscape:window-y="-8"
   inkscape:window-maximized="1"
   inkscape:current-layer="Layer_1"
   showgrid="false" />














<g
   id="g14"
   transform="matrix(0.68622153,-0.72912097,0.727229,0.68444088,28.196507,136.60671)"
   inkscape:transform-center-x="71.691793"
   inkscape:transform-center-y="23.505885"><path
     style="fill:#6f6f6f;stroke-width:1.00071"
     d="M 488.31479,0 H 256.32161 L 235.44886,322.91858 512,301.9624 V 23.778738 C 512,10.645535 501.39634,0 488.31479,0 Z"
     id="path1" /><path
     style="fill:#9d9d9d;stroke-width:1.00071"
     d="M 256.32161,0 H 24.328425 C 11.246879,0 0.64321732,10.645535 0.64321732,23.778738 V 301.9634 L 256.32161,322.91858 Z"
     id="path2" /><polygon
     style="fill:#6f6f6f"
     points="235.101,384.341 256,479.644 337.385,479.644 326.606,405.24 "
     id="polygon2"
     transform="matrix(0.99874372,0,0,1.0026877,0.64321732,-16.723828)" /><polygon
     style="fill:#9d9d9d"
     points="256,384.341 185.394,405.24 174.615,479.644 256,479.644 "
     id="polygon3"
     transform="matrix(0.99874372,0,0,1.0026877,0.64321732,-16.723828)" /><path
     style="fill:#d4d4d4;stroke-width:1.00071"
     d="m 256.32161,389.60532 h 70.5173 161.47688 c 13.08055,0 23.68521,-10.64553 23.68521,-23.77873 V 301.9624 H 256.32161 l -20.87275,43.82147 z"
     id="path3" /><path
     style="fill:#ededed;stroke-width:1.00071"
     d="M 256.32161,301.9624 H 0.64321732 v 63.86419 c 0,13.1332 10.60366168,23.77873 23.68520768,23.77873 h 161.476885 70.5163 z"
     id="path4" /><polygon
     style="fill:#d4d4d4"
     points="256,463.971 235.101,479.644 256,495.318 382.119,495.318 382.119,463.971 "
     id="polygon4"
     transform="matrix(0.99874372,0,0,1.0026877,0.64321732,-16.723828)" /><rect
     x="130.36105"
     y="448.4982"
     style="fill:#ededed;stroke-width:1.00071"
     width="125.96056"
     height="31.43125"
     id="rect4" /><polygon
     style="fill:#6f6f6f"
     points="256,345.863 245.55,361.536 256,377.21 278.271,377.21 278.271,345.863 "
     id="polygon8"
     transform="matrix(0.99874372,0,0,1.0026877,0.64321732,-16.723828)" /><rect
     x="234.08258"
     y="330.06567"
     style="fill:#9d9d9d;stroke-width:1.00071"
     width="22.243021"
     height="31.43125"
     id="rect8" /><path
     fill-rule="evenodd"
     clip-rule="evenodd"
     d="m 81.320638,16.616644 c -7.071974,0 -12.733423,2.207623 -26.237537,7.659579 l -18.73013,7.561971 c -6.738713,2.720627 -11.40826,4.61309 -14.434863,6.214626 -0.295768,0.156501 -0.562342,0.30345 -0.802161,0.440833 0.239819,0.13739 0.506393,0.28434 0.802161,0.44084 3.026603,1.601529 7.69615,3.493992 14.434863,6.21462 l 18.73013,7.561909 c 13.504114,5.451748 19.165563,7.659646 26.237537,7.659646 7.071985,0 12.733423,-2.207898 26.237802,-7.659646 l 18.72966,-7.561909 c 6.73919,-2.720628 11.40827,-4.613091 14.4354,-6.21462 0.29544,-0.1565 0.56221,-0.30345 0.80164,-0.44084 -0.23943,-0.137383 -0.5062,-0.284332 -0.80164,-0.440833 -3.02713,-1.601536 -7.69621,-3.493999 -14.4354,-6.214626 L 107.55844,24.276223 C 94.054061,18.824267 88.392623,16.616644 81.320638,16.616644 Z M 52.139204,14.589823 C 64.65581,9.5349505 72.122538,6.5195588 81.320638,6.5195588 c 9.1981,0 16.664898,3.0153917 29.181572,8.0702642 0.25476,0.102987 0.5122,0.206784 0.77096,0.311461 l 19.03311,7.684081 c 6.3657,2.570111 11.5223,4.651793 15.06162,6.524802 1.79134,0.947916 3.52666,2.022578 4.86515,3.318105 1.37518,1.331061 2.78104,3.349808 2.78104,6.065381 0,2.715581 -1.40586,4.734321 -2.78104,6.065388 -1.33849,1.295522 -3.07381,2.370189 -4.86515,3.318105 -3.53932,1.872941 -8.69592,3.954623 -15.06162,6.524802 l -19.03311,7.683874 c -0.25876,0.105015 -0.5162,0.208674 -0.77096,0.311667 -12.516674,5.054598 -19.983472,8.070258 -29.181572,8.070258 -9.1981,0 -16.664828,-3.01566 -29.181364,-8.070258 -0.255029,-0.102993 -0.512195,-0.206652 -0.771489,-0.311667 L 32.335335,54.401948 C 25.969023,51.831832 20.812769,49.750156 17.273181,47.877146 15.481774,46.92923 13.746397,45.854563 12.40829,44.559041 11.03338,43.227974 9.6271886,41.209234 9.6271886,38.493653 c 0,-2.715573 1.4061914,-4.73432 2.7811014,-6.065381 1.338107,-1.295527 3.073484,-2.370189 4.864891,-3.318105 3.539588,-1.873009 8.695912,-3.954691 15.062224,-6.52487 l 19.03238,-7.684013 c 0.259294,-0.104677 0.51639,-0.208474 0.771419,-0.311461 z m -34.182503,47.060481 0.02437,0.02084 c 0.02946,0.02627 0.08409,0.07338 0.164123,0.140684 0.160129,0.135306 0.4215,0.35004 0.784094,0.632756 0.725278,0.566106 1.854697,1.401471 3.387998,2.405123 3.066813,2.007304 7.745498,4.685049 14.035715,7.224798 l 18.73013,7.562042 C 68.587245,85.0883 74.248694,87.2962 81.320668,87.2962 c 7.071975,0 12.733423,-2.2079 26.237792,-7.659656 l 18.72967,-7.562042 c 6.29035,-2.539749 10.96944,-5.217494 14.03591,-7.224798 1.53324,-1.003652 2.663,-1.839017 3.38794,-2.405123 0.3628,-0.282716 0.62423,-0.49745 0.78429,-0.632756 0.08,-0.06733 0.13472,-0.114429 0.16406,-0.140684 l 0.014,-0.01148 c 0.003,-0.0034 0.007,-0.0069 0.0106,-0.01011 2.05678,-1.849785 5.20995,-1.672751 7.05063,0.3985 1.84469,2.075288 1.67264,5.267308 -0.38346,7.129211 l -3.33992,-3.758134 c 3.33992,3.758134 3.34125,3.756786 3.33992,3.758134 l -0.009,0.0082 -0.0114,0.01073 -0.0314,0.02758 -0.0914,0.08078 c -0.074,0.06464 -0.17406,0.151454 -0.30144,0.25781 -0.25343,0.214058 -0.6129,0.508891 -1.07841,0.871714 -0.93034,0.725647 -2.28418,1.723233 -4.06151,2.887093 -3.55534,2.327045 -8.80996,5.321169 -15.76389,8.128151 l -18.73032,7.562055 c -0.25875,0.105 -0.51619,0.208669 -0.77095,0.311663 -12.516674,5.054599 -19.983462,8.07026 -29.181572,8.07026 -9.1981,0 -16.664828,-3.015661 -29.181364,-8.07026 -0.255029,-0.102984 -0.512196,-0.206653 -0.771489,-0.311663 L 32.637934,81.449284 C 25.684001,78.642292 20.429511,75.648174 16.874253,73.321137 15.096449,72.157277 13.742612,71.15969 12.812392,70.434044 12.347227,70.071221 11.987759,69.776388 11.733999,69.562329 11.607078,69.455973 11.506575,69.36914 11.432478,69.304521 l -0.09138,-0.08078 -0.03086,-0.02758 -0.01169,-0.0108 -0.007,-0.0061 c -6.79e-4,-0.0014 -0.002,-0.002 3.337912,-3.760155 l -3.337912,3.760155 C 9.2351917,67.317309 9.0615202,64.123266 10.90614,62.047979 c 1.840964,-2.071252 4.994338,-2.248286 7.050971,-0.397826 z M 144.67498,88.584606 c 0.003,-0.003 0.007,-0.006 0.01,-0.0091 2.05677,-1.849785 5.20995,-1.672759 7.05063,0.398487 1.84469,2.07529 1.67263,5.267321 -0.38347,7.129224 l -3.33991,-3.75813 c 3.33991,3.75813 3.34124,3.756789 3.33991,3.75813 l -0.009,0.0081 -0.0113,0.01069 -0.0314,0.02762 -0.0914,0.08075 c -0.074,0.06462 -0.17407,0.151462 -0.30144,0.257813 -0.25344,0.214062 -0.6129,0.50889 -1.07841,0.871712 -0.93035,0.725644 -2.28419,1.723233 -4.06152,2.887098 -3.55533,2.32704 -8.80996,5.32116 -15.76389,8.12815 l -18.73031,7.56207 c -0.25876,0.10501 -0.51619,0.20866 -0.77096,0.31166 -12.516674,5.0546 -19.983472,8.07026 -29.181562,8.07026 -9.19811,0 -16.664828,-3.01566 -29.181374,-8.07026 -0.255029,-0.103 -0.512196,-0.20665 -0.77149,-0.31166 l -18.73007,-7.56205 c -6.953923,-2.80699 -12.208423,-5.80111 -15.763681,-8.12815 -1.777804,-1.163865 -3.131641,-2.161454 -4.061861,-2.887098 -0.465165,-0.362822 -0.824633,-0.65765 -1.078394,-0.871712 -0.12692,-0.106351 -0.227413,-0.193186 -0.30152,-0.257812 l -0.09138,-0.08075 -0.03086,-0.02762 -0.01169,-0.01079 -0.007,-0.006 c -6.79e-4,-0.001 -0.002,-0.002 3.337921,-3.760156 l -3.337921,3.760156 C 9.2353315,94.243277 9.06166,91.049219 10.90629,88.97393 c 1.840884,-2.071237 4.993998,-2.248273 7.050631,-0.398488 -9.99e-4,-10e-4 9.99e-4,0.001 0,0 9.99e-4,0.001 0.006,0.006 0.008,0.0071 -6.79e-4,-6.15e-4 9.99e-4,10e-4 0,0 l 0.01708,0.01482 c 0.02946,0.02631 0.08409,0.07339 0.164113,0.140686 0.160139,0.135292 0.4215,0.350029 0.784104,0.632751 0.725268,0.566108 1.854687,1.401469 3.387988,2.405127 3.066823,2.007296 7.745507,4.685044 14.035715,7.224798 l 18.73014,7.562026 c 13.504124,5.45176 19.165573,7.65965 26.237547,7.65965 7.071975,0 12.733413,-2.20789 26.237792,-7.65965 l 18.72967,-7.562026 c 6.29035,-2.539734 10.96942,-5.217492 14.03591,-7.224788 1.53324,-1.003647 2.663,-1.839019 3.38793,-2.405127 0.36281,-0.282722 0.62423,-0.497449 0.7843,-0.632751 0.08,-0.06734 0.13471,-0.114426 0.16405,-0.140686 z"
     fill="#1C274C"
     id="path1-3"
     style="fill:#4b4c1c;fill-opacity:1;stroke-width:6.70019" /></g></svg>
